<mxfile host="app.diagrams.net" modified="2023-12-25T12:46:04.681Z" agent="Mozilla/5.0 (X11; Linux x86_64) AppleWebKit/537.36 (KHTML, like Gecko) Chrome/120.0.0.0 Safari/537.36" etag="bnzC1n7-fnhb2Il-PAOK" version="22.1.11" type="github">
  <diagram name="PÃ¡gina-1" id="mDbjD2aPrkbCkiiDM5mZ">
    <mxGraphModel dx="1434" dy="820" grid="1" gridSize="10" guides="1" tooltips="1" connect="1" arrows="1" fold="1" page="1" pageScale="1" pageWidth="827" pageHeight="1169" math="0" shadow="0">
      <root>
        <mxCell id="0" />
        <mxCell id="1" parent="0" />
        <mxCell id="Oi85JYLO62_tei0cO8lR-1" value="Usuarios" style="rounded=1;whiteSpace=wrap;html=1;" vertex="1" parent="1">
          <mxGeometry x="40" y="100" width="120" height="60" as="geometry" />
        </mxCell>
        <mxCell id="Oi85JYLO62_tei0cO8lR-4" value="Escribe" style="rhombus;whiteSpace=wrap;html=1;" vertex="1" parent="1">
          <mxGeometry x="280" y="90" width="240" height="80" as="geometry" />
        </mxCell>
        <mxCell id="Oi85JYLO62_tei0cO8lR-5" value="Comentarios" style="rounded=1;whiteSpace=wrap;html=1;" vertex="1" parent="1">
          <mxGeometry x="650" y="100" width="120" height="60" as="geometry" />
        </mxCell>
        <mxCell id="Oi85JYLO62_tei0cO8lR-7" value="Tiene" style="rhombus;whiteSpace=wrap;html=1;" vertex="1" parent="1">
          <mxGeometry x="610" y="270" width="200" height="80" as="geometry" />
        </mxCell>
        <mxCell id="Oi85JYLO62_tei0cO8lR-9" value="Escribe" style="rhombus;whiteSpace=wrap;html=1;" vertex="1" parent="1">
          <mxGeometry y="270" width="200" height="80" as="geometry" />
        </mxCell>
        <mxCell id="Oi85JYLO62_tei0cO8lR-10" value="Posts" style="rounded=1;whiteSpace=wrap;html=1;" vertex="1" parent="1">
          <mxGeometry x="340" y="280" width="120" height="60" as="geometry" />
        </mxCell>
        <mxCell id="Oi85JYLO62_tei0cO8lR-20" value="" style="endArrow=none;html=1;rounded=0;strokeWidth=5;exitX=1;exitY=0.5;exitDx=0;exitDy=0;" edge="1" parent="1" source="Oi85JYLO62_tei0cO8lR-9">
          <mxGeometry width="50" height="50" relative="1" as="geometry">
            <mxPoint x="209" y="310" as="sourcePoint" />
            <mxPoint x="339" y="310" as="targetPoint" />
          </mxGeometry>
        </mxCell>
        <mxCell id="Oi85JYLO62_tei0cO8lR-21" value="" style="endArrow=none;html=1;rounded=0;entryX=0.5;entryY=1;entryDx=0;entryDy=0;strokeWidth=5;" edge="1" parent="1" target="Oi85JYLO62_tei0cO8lR-1">
          <mxGeometry width="50" height="50" relative="1" as="geometry">
            <mxPoint x="100" y="270" as="sourcePoint" />
            <mxPoint x="150" y="220" as="targetPoint" />
          </mxGeometry>
        </mxCell>
        <mxCell id="Oi85JYLO62_tei0cO8lR-23" value="" style="endArrow=none;html=1;rounded=0;entryX=0;entryY=0.5;entryDx=0;entryDy=0;strokeWidth=5;" edge="1" parent="1" target="Oi85JYLO62_tei0cO8lR-4">
          <mxGeometry width="50" height="50" relative="1" as="geometry">
            <mxPoint x="160" y="130" as="sourcePoint" />
            <mxPoint x="210" y="80" as="targetPoint" />
          </mxGeometry>
        </mxCell>
        <mxCell id="Oi85JYLO62_tei0cO8lR-24" value="" style="endArrow=none;html=1;rounded=0;strokeWidth=5;" edge="1" parent="1" target="Oi85JYLO62_tei0cO8lR-5">
          <mxGeometry width="50" height="50" relative="1" as="geometry">
            <mxPoint x="521" y="129.5" as="sourcePoint" />
            <mxPoint x="641" y="129.5" as="targetPoint" />
          </mxGeometry>
        </mxCell>
        <mxCell id="Oi85JYLO62_tei0cO8lR-25" value="" style="endArrow=none;html=1;rounded=0;entryX=0;entryY=0.5;entryDx=0;entryDy=0;strokeWidth=5;" edge="1" parent="1" target="Oi85JYLO62_tei0cO8lR-7">
          <mxGeometry width="50" height="50" relative="1" as="geometry">
            <mxPoint x="460" y="309.5" as="sourcePoint" />
            <mxPoint x="580" y="309.5" as="targetPoint" />
          </mxGeometry>
        </mxCell>
        <mxCell id="Oi85JYLO62_tei0cO8lR-26" value="" style="endArrow=none;html=1;rounded=0;entryX=0.5;entryY=0;entryDx=0;entryDy=0;strokeWidth=5;exitX=0.5;exitY=1;exitDx=0;exitDy=0;" edge="1" parent="1" source="Oi85JYLO62_tei0cO8lR-5" target="Oi85JYLO62_tei0cO8lR-7">
          <mxGeometry width="50" height="50" relative="1" as="geometry">
            <mxPoint x="700" y="160" as="sourcePoint" />
            <mxPoint x="820" y="160" as="targetPoint" />
          </mxGeometry>
        </mxCell>
        <mxCell id="Oi85JYLO62_tei0cO8lR-27" value="" style="endArrow=none;html=1;rounded=0;strokeWidth=5;entryX=0.5;entryY=0;entryDx=0;entryDy=0;" edge="1" parent="1" target="Oi85JYLO62_tei0cO8lR-10">
          <mxGeometry width="50" height="50" relative="1" as="geometry">
            <mxPoint x="399.5" y="170" as="sourcePoint" />
            <mxPoint x="399.5" y="260" as="targetPoint" />
          </mxGeometry>
        </mxCell>
        <mxCell id="Oi85JYLO62_tei0cO8lR-28" value="Categorias" style="rounded=1;whiteSpace=wrap;html=1;" vertex="1" parent="1">
          <mxGeometry x="40" y="470" width="120" height="60" as="geometry" />
        </mxCell>
        <mxCell id="Oi85JYLO62_tei0cO8lR-29" value="" style="endArrow=none;html=1;rounded=0;strokeWidth=5;" edge="1" parent="1">
          <mxGeometry width="50" height="50" relative="1" as="geometry">
            <mxPoint x="160" y="500" as="sourcePoint" />
            <mxPoint x="250" y="500" as="targetPoint" />
          </mxGeometry>
        </mxCell>
        <mxCell id="Oi85JYLO62_tei0cO8lR-30" value="Tiene" style="rhombus;whiteSpace=wrap;html=1;" vertex="1" parent="1">
          <mxGeometry x="240" y="460" width="140" height="80" as="geometry" />
        </mxCell>
        <mxCell id="Oi85JYLO62_tei0cO8lR-31" value="" style="endArrow=none;html=1;rounded=0;strokeWidth=5;exitX=1;exitY=0.5;exitDx=0;exitDy=0;" edge="1" parent="1" source="Oi85JYLO62_tei0cO8lR-30">
          <mxGeometry width="50" height="50" relative="1" as="geometry">
            <mxPoint x="380" y="495" as="sourcePoint" />
            <mxPoint x="380" y="340" as="targetPoint" />
          </mxGeometry>
        </mxCell>
        <mxCell id="Oi85JYLO62_tei0cO8lR-33" value="Tiene" style="rhombus;whiteSpace=wrap;html=1;" vertex="1" parent="1">
          <mxGeometry x="424" y="460" width="170" height="80" as="geometry" />
        </mxCell>
        <mxCell id="Oi85JYLO62_tei0cO8lR-34" value="" style="endArrow=none;html=1;rounded=0;strokeWidth=5;" edge="1" parent="1" target="Oi85JYLO62_tei0cO8lR-35">
          <mxGeometry width="50" height="50" relative="1" as="geometry">
            <mxPoint x="594" y="499.5" as="sourcePoint" />
            <mxPoint x="664" y="499.5" as="targetPoint" />
          </mxGeometry>
        </mxCell>
        <mxCell id="Oi85JYLO62_tei0cO8lR-35" value="Etiquetas" style="rounded=1;whiteSpace=wrap;html=1;" vertex="1" parent="1">
          <mxGeometry x="670" y="470" width="120" height="60" as="geometry" />
        </mxCell>
        <mxCell id="Oi85JYLO62_tei0cO8lR-36" value="" style="endArrow=none;html=1;rounded=0;entryX=0.7;entryY=1.017;entryDx=0;entryDy=0;entryPerimeter=0;strokeWidth=5;" edge="1" parent="1" target="Oi85JYLO62_tei0cO8lR-10">
          <mxGeometry width="50" height="50" relative="1" as="geometry">
            <mxPoint x="424" y="500" as="sourcePoint" />
            <mxPoint x="474" y="450" as="targetPoint" />
          </mxGeometry>
        </mxCell>
        <mxCell id="Oi85JYLO62_tei0cO8lR-37" value="&lt;font style=&quot;font-size: 17px;&quot;&gt;1:N&lt;/font&gt;" style="text;html=1;align=center;verticalAlign=middle;resizable=0;points=[];autosize=1;strokeColor=none;fillColor=none;strokeWidth=6;" vertex="1" parent="1">
          <mxGeometry x="380" y="60" width="50" height="30" as="geometry" />
        </mxCell>
        <mxCell id="Oi85JYLO62_tei0cO8lR-38" value="&lt;font style=&quot;font-size: 16px;&quot;&gt;1:N&lt;/font&gt;" style="text;html=1;align=center;verticalAlign=middle;resizable=0;points=[];autosize=1;strokeColor=none;fillColor=none;strokeWidth=6;" vertex="1" parent="1">
          <mxGeometry x="285" y="430" width="50" height="30" as="geometry" />
        </mxCell>
        <mxCell id="Oi85JYLO62_tei0cO8lR-39" value="&lt;font style=&quot;font-size: 16px;&quot;&gt;1:N&lt;/font&gt;" style="text;html=1;align=center;verticalAlign=middle;resizable=0;points=[];autosize=1;strokeColor=none;fillColor=none;strokeWidth=6;" vertex="1" parent="1">
          <mxGeometry x="610" y="260" width="50" height="30" as="geometry" />
        </mxCell>
        <mxCell id="Oi85JYLO62_tei0cO8lR-40" value="&lt;font style=&quot;font-size: 17px;&quot;&gt;1:N&lt;/font&gt;" style="text;html=1;align=center;verticalAlign=middle;resizable=0;points=[];autosize=1;strokeColor=none;fillColor=none;strokeWidth=6;" vertex="1" parent="1">
          <mxGeometry x="150" y="260" width="50" height="30" as="geometry" />
        </mxCell>
        <mxCell id="Oi85JYLO62_tei0cO8lR-42" value="&lt;font style=&quot;font-size: 16px;&quot;&gt;N:N&lt;/font&gt;" style="text;html=1;align=center;verticalAlign=middle;resizable=0;points=[];autosize=1;strokeColor=none;fillColor=none;" vertex="1" parent="1">
          <mxGeometry x="484" y="430" width="50" height="30" as="geometry" />
        </mxCell>
      </root>
    </mxGraphModel>
  </diagram>
</mxfile>
